<svg width="40" height="41" viewBox="0 0 40 41" fill="none" xmlns="http://www.w3.org/2000/svg">
<rect x="0.5" y="1" width="39" height="39" rx="19.5" stroke="#E9AB14" style="stroke:#E9AB14;stroke:color(display-p3 0.9144 0.6704 0.0783);stroke-opacity:1;"/>
<path d="M30.0001 17C30.0001 20.26 27.6001 22.95 24.4801 23.42V23.36C24.1701 19.48 21.0201 16.33 17.1101 16.02H17.0801C17.5501 12.9 20.2401 10.5 23.5001 10.5C27.0901 10.5 30.0001 13.41 30.0001 17Z" fill="#E9AB14" style="fill:#E9AB14;fill:color(display-p3 0.9137 0.6706 0.0784);fill-opacity:1;"/>
<path d="M22.98 23.48C22.73 20.31 20.19 17.77 17.02 17.52C16.85 17.51 16.67 17.5 16.5 17.5C12.91 17.5 10 20.41 10 24C10 27.59 12.91 30.5 16.5 30.5C20.09 30.5 23 27.59 23 24C23 23.83 22.99 23.65 22.98 23.48ZM17.38 24.88L16.5 26.5L15.62 24.88L14 24L15.62 23.12L16.5 21.5L17.38 23.12L19 24L17.38 24.88Z" fill="#E9AB14" style="fill:#E9AB14;fill:color(display-p3 0.9137 0.6706 0.0784);fill-opacity:1;"/>
</svg>
