<svg width="60" height="60" viewBox="0 0 60 60" fill="none" xmlns="http://www.w3.org/2000/svg">
<rect width="60" height="60" fill="#060606" fill-opacity="0.5"/>
<path d="M41.2467 23.4131C41.2217 23.4131 41.1842 23.4131 41.1467 23.4131C34.5342 22.7506 27.9342 22.5006 21.3967 23.1631L18.8467 23.4131C18.3217 23.4631 17.8592 23.0881 17.8092 22.5631C17.7592 22.0381 18.1342 21.5881 18.6467 21.5381L21.1967 21.2881C27.8467 20.6131 34.5842 20.8756 41.3342 21.5381C41.8467 21.5881 42.2217 22.0506 42.1717 22.5631C42.1342 23.0506 41.7217 23.4131 41.2467 23.4131Z" fill="white"/>
<path d="M25.6259 22.15C25.5759 22.15 25.5259 22.15 25.4634 22.1375C24.9634 22.05 24.6134 21.5625 24.7009 21.0625L24.9759 19.425C25.1759 18.225 25.4509 16.5625 28.3634 16.5625H31.6384C34.5634 16.5625 34.8384 18.2875 35.0259 19.4375L35.3009 21.0625C35.3884 21.575 35.0384 22.0625 34.5384 22.1375C34.0259 22.225 33.5384 21.875 33.4634 21.375L33.1884 19.75C33.0134 18.6625 32.9759 18.45 31.6509 18.45H28.3759C27.0509 18.45 27.0259 18.625 26.8384 19.7375L26.5509 21.3625C26.4759 21.825 26.0759 22.15 25.6259 22.15Z" fill="white"/>
<path d="M34.0149 43.4384H25.9899C21.6274 43.4384 21.4524 41.0259 21.3149 39.0759L20.5024 26.4884C20.4649 25.9759 20.8649 25.5259 21.3774 25.4884C21.9024 25.4634 22.3399 25.8509 22.3774 26.3634L23.1899 38.9509C23.3274 40.8509 23.3774 41.5634 25.9899 41.5634H34.0149C36.6399 41.5634 36.6899 40.8509 36.8149 38.9509L37.6274 26.3634C37.6649 25.8509 38.1149 25.4634 38.6274 25.4884C39.1399 25.5259 39.5399 25.9634 39.5024 26.4884L38.6899 39.0759C38.5524 41.0259 38.3774 43.4384 34.0149 43.4384Z" fill="white"/>
<path d="M32.0766 36.5615H27.9141C27.4016 36.5615 26.9766 36.1365 26.9766 35.624C26.9766 35.1115 27.4016 34.6865 27.9141 34.6865H32.0766C32.5891 34.6865 33.0141 35.1115 33.0141 35.624C33.0141 36.1365 32.5891 36.5615 32.0766 36.5615Z" fill="white"/>
<path d="M33.125 31.5615H26.875C26.3625 31.5615 25.9375 31.1365 25.9375 30.624C25.9375 30.1115 26.3625 29.6865 26.875 29.6865H33.125C33.6375 29.6865 34.0625 30.1115 34.0625 30.624C34.0625 31.1365 33.6375 31.5615 33.125 31.5615Z" fill="white"/>
</svg>
