<svg width="54" height="56" viewBox="0 0 54 56" fill="none" xmlns="http://www.w3.org/2000/svg">
<path d="M43.2416 9.86277C43.0972 9.86277 42.9536 9.80777 42.8436 9.69786C42.6237 9.47795 42.6237 9.12179 42.8436 8.90197L46.61 5.13564C46.8299 4.91573 47.1861 4.91573 47.4059 5.13564C47.6258 5.35555 47.6258 5.71171 47.4059 5.93153L43.6395 9.69786C43.5296 9.80777 43.386 9.86277 43.2416 9.86277Z" fill="#1A3964" style="fill:#1A3964;fill:color(display-p3 0.1020 0.2235 0.3922);fill-opacity:1;"/>
<path d="M51.4266 12.7253H46.1C45.7892 12.7253 45.5371 12.4732 45.5371 12.1625C45.5371 11.8517 45.7892 11.5996 46.1 11.5996H51.4266C51.7374 11.5996 51.9895 11.8517 51.9895 12.1625C51.9895 12.4732 51.7374 12.7253 51.4266 12.7253Z" fill="#1A3964" style="fill:#1A3964;fill:color(display-p3 0.1020 0.2235 0.3922);fill-opacity:1;"/>
<path d="M40.3841 7.00706C40.0734 7.00706 39.8213 6.75495 39.8213 6.4442V1.11754C39.8213 0.8068 40.0734 0.554688 40.3841 0.554688C40.6949 0.554688 40.947 0.8068 40.947 1.11754V6.4442C40.947 6.75495 40.6949 7.00706 40.3841 7.00706Z" fill="#1A3964" style="fill:#1A3964;fill:color(display-p3 0.1020 0.2235 0.3922);fill-opacity:1;"/>
<path d="M40.5 42.0547C47.9558 34.5988 47.9558 22.5105 40.5 15.0547C33.0442 7.59884 20.9558 7.59884 13.5 15.0547C6.04416 22.5105 6.04416 34.5988 13.5 42.0547C20.9558 49.5105 33.0442 49.5105 40.5 42.0547Z" fill="#FCC85D" style="fill:#FCC85D;fill:color(display-p3 0.9882 0.7843 0.3647);fill-opacity:1;"/>
<path d="M46.1004 28.5506C46.1004 39.0959 37.5509 47.6454 27.0056 47.6454C19.9898 47.6454 13.8549 43.8634 10.541 38.2212C13.3744 39.8904 16.6821 40.8513 20.2116 40.8513C30.763 40.8513 39.3063 32.3079 39.3063 21.7565C39.3063 18.227 38.3454 14.9194 36.6762 12.0859C42.3183 15.3999 46.1004 21.5348 46.1004 28.5506Z" fill="#EF9638" style="fill:#EF9638;fill:color(display-p3 0.9373 0.5882 0.2196);fill-opacity:1;"/>
<path d="M46.1105 28.0069C46.1105 38.5522 37.561 47.1017 27.0157 47.1017C21.1764 47.1017 15.9469 44.4777 12.4482 40.3446C15.7682 43.1411 20.0615 44.8288 24.7429 44.8288C35.2881 44.8288 43.8376 36.2793 43.8376 25.7341C43.8376 21.0527 42.1499 16.7595 39.3535 13.4395C43.4864 16.9381 46.1105 22.1676 46.1105 28.0069Z" fill="#F78426" style="fill:#F78426;fill:color(display-p3 0.9686 0.5176 0.1490);fill-opacity:1;"/>
<path d="M36.1693 37.7247C41.2338 32.6603 41.2338 24.4491 36.1693 19.3846C31.1048 14.3202 22.8937 14.3202 17.8292 19.3846C12.7647 24.4491 12.7647 32.6603 17.8292 37.7247C22.8937 42.7892 31.1048 42.7892 36.1693 37.7247Z" fill="#EF9638" style="fill:#EF9638;fill:color(display-p3 0.9373 0.5882 0.2196);fill-opacity:1;"/>
<path d="M39.9776 28.5523C39.9776 35.716 34.169 41.5244 27.0054 41.5244C22.1024 41.5244 17.8338 38.8019 15.6348 34.792C17.4888 35.8145 19.6138 36.3935 21.8745 36.3935C29.0382 36.3935 34.8466 30.5849 34.8466 23.4214C34.8466 21.1608 34.2676 19.0357 33.2451 17.1816C37.255 19.3807 39.9776 23.6493 39.9776 28.5523Z" fill="#F78426" style="fill:#F78426;fill:color(display-p3 0.9686 0.5176 0.1490);fill-opacity:1;"/>
</svg>
